<svg xmlns="http://www.w3.org/2000/svg" width="900" height="220">
<rect width="100%" height="100%" fill="white"/>
<text x="30" y="30" font-size="20" font-family="Consolas">Machura Shadow Axis - R4_3</text>
<line x1="50" y1="155" x2="850" y2="155" stroke="black"/>
<line x1="50" y1="45" x2="50" y2="155" stroke="black"/>
<polyline points="70.0,115.2 140.9,94.8 211.8,80.4 282.7,60.0 353.6,60.0 424.5,94.8 495.5,150.0 566.4,150.0 637.3,150.0 708.2,150.0 779.1,150.0 850.0,150.0" fill="none" stroke="black" stroke-width="2"/>
<circle cx="70.0" cy="115.2" r="5"/><text x="58.0" y="180" font-size="11">n=1</text><text x="48.0" y="105.2" font-size="10">1</text>
<circle cx="140.9" cy="94.8" r="5"/><text x="128.9" y="180" font-size="11">n=2</text><text x="118.9" y="84.8" font-size="10">2</text>
<circle cx="211.8" cy="80.4" r="5"/><text x="199.8" y="180" font-size="11">n=3</text><text x="189.8" y="70.4" font-size="10">3</text>
<circle cx="282.7" cy="60.0" r="5"/><text x="270.7" y="180" font-size="11">n=4</text><text x="260.7" y="50.0" font-size="10">5</text>
<circle cx="353.6" cy="60.0" r="5"/><text x="341.6" y="180" font-size="11">n=5</text><text x="331.6" y="50.0" font-size="10">5</text>
<circle cx="424.5" cy="94.8" r="5"/><text x="412.5" y="180" font-size="11">n=6</text><text x="402.5" y="84.8" font-size="10">2</text>
<circle cx="495.5" cy="150.0" r="5"/><text x="483.5" y="180" font-size="11">n=7</text><text x="473.5" y="140.0" font-size="10">0</text>
<circle cx="566.4" cy="150.0" r="5"/><text x="554.4" y="180" font-size="11">n=8</text><text x="544.4" y="140.0" font-size="10">0</text>
<circle cx="637.3" cy="150.0" r="5"/><text x="625.3" y="180" font-size="11">n=9</text><text x="615.3" y="140.0" font-size="10">0</text>
<circle cx="708.2" cy="150.0" r="5"/><text x="696.2" y="180" font-size="11">n=10</text><text x="686.2" y="140.0" font-size="10">0</text>
<circle cx="779.1" cy="150.0" r="5"/><text x="767.1" y="180" font-size="11">n=11</text><text x="757.1" y="140.0" font-size="10">0</text>
<circle cx="850.0" cy="150.0" r="5"/><text x="838.0" y="180" font-size="11">n=12</text><text x="828.0" y="140.0" font-size="10">0</text>
<text x="30" y="205" font-size="12" font-family="Consolas">classes per clean layer generated by Phi_G(x)=0</text>
</svg>