<svg xmlns="http://www.w3.org/2000/svg" width="900" height="220">
<rect width="100%" height="100%" fill="white"/>
<text x="30" y="30" font-size="20" font-family="Consolas">Machura Shadow Axis - R4_4</text>
<line x1="50" y1="155" x2="850" y2="155" stroke="black"/>
<line x1="50" y1="45" x2="50" y2="155" stroke="black"/>
<polyline points="70.0,142.9 156.7,138.7 243.3,133.5 330.0,126.4 416.7,117.4 503.3,107.4 590.0,95.5 676.7,76.7 763.3,60.0 850.0,61.1" fill="none" stroke="black" stroke-width="2"/>
<circle cx="70.0" cy="142.9" r="5"/><text x="58.0" y="180" font-size="11">n=1</text><text x="48.0" y="132.9" font-size="10">1</text>
<circle cx="156.7" cy="138.7" r="5"/><text x="144.7" y="180" font-size="11">n=2</text><text x="134.7" y="128.7" font-size="10">2</text>
<circle cx="243.3" cy="133.5" r="5"/><text x="231.3" y="180" font-size="11">n=3</text><text x="221.3" y="123.5" font-size="10">4</text>
<circle cx="330.0" cy="126.4" r="5"/><text x="318.0" y="180" font-size="11">n=4</text><text x="308.0" y="116.4" font-size="10">9</text>
<circle cx="416.7" cy="117.4" r="5"/><text x="404.7" y="180" font-size="11">n=5</text><text x="394.7" y="107.4" font-size="10">23</text>
<circle cx="503.3" cy="107.4" r="5"/><text x="491.3" y="180" font-size="11">n=6</text><text x="481.3" y="97.4" font-size="10">63</text>
<circle cx="590.0" cy="95.5" r="5"/><text x="578.0" y="180" font-size="11">n=7</text><text x="568.0" y="85.5" font-size="10">203</text>
<circle cx="676.7" cy="76.7" r="5"/><text x="664.7" y="180" font-size="11">n=8</text><text x="654.7" y="66.7" font-size="10">1279</text>
<circle cx="763.3" cy="60.0" r="5"/><text x="751.3" y="180" font-size="11">n=9</text><text x="741.3" y="50.0" font-size="10">6514</text>
<circle cx="850.0" cy="61.1" r="5"/><text x="838.0" y="180" font-size="11">n=10</text><text x="828.0" y="51.1" font-size="10">5858</text>
<text x="30" y="205" font-size="12" font-family="Consolas">classes per clean layer generated by Phi_G(x)=0</text>
</svg>